<svg width="16" height="12" viewBox="0 0 16 12" fill="none" xmlns="http://www.w3.org/2000/svg">
<path d="M4.7356 0C3.34181 0 2.18311 1.17549 2.18311 2.58608C2.18311 3.99668 3.3586 5.17217 4.7356 5.17217C6.11261 5.17217 7.3049 3.99668 7.3049 2.58608C7.3049 1.17549 6.1294 0 4.7356 0Z" fill="#7C7C7C"/>
<path d="M11.1336 0C9.72296 0 8.58105 1.1587 8.58105 2.58608C8.58105 4.01347 9.72296 5.17217 11.1336 5.17217C12.5441 5.17217 13.6861 4.01347 13.6861 2.58608C13.6861 1.1587 12.5441 0 11.1336 0Z" fill="#7C7C7C"/>
<path d="M4.73556 6.64993C1.864 6.64993 0.537368 8.5643 0.134342 9.31997C0.0335855 9.4879 0 9.68941 0 9.89093C0 10.5626 0.537368 11.1 1.20908 11.1H8.29562C8.96733 11.1 9.5047 10.5626 9.5047 9.89093C9.5047 9.68941 9.45432 9.50469 9.37036 9.31997C8.93375 8.5643 7.62391 6.64993 4.73556 6.64993Z" fill="#7C7C7C"/>
<path d="M11.1336 6.64993C10.6467 6.64993 10.1932 6.7171 9.79022 6.81785C9.18568 6.96899 8.95058 7.69108 9.32002 8.19486C9.77343 8.78261 9.99174 9.2696 10.0253 9.31997C10.0757 9.42073 10.0925 9.53828 10.0925 9.65583V10.2268C10.0925 10.697 10.4787 11.1 10.9657 11.1H15.0799C15.5501 11.1 15.9532 10.7138 15.9532 10.2268V9.85734C15.9532 9.70621 15.9196 9.55507 15.8356 9.42073C15.4662 8.76581 14.1731 6.64993 11.1336 6.64993Z" fill="#7C7C7C"/>
</svg>
