<svg width="17" height="12" viewBox="0 0 17 12" fill="none" xmlns="http://www.w3.org/2000/svg">
<path id="Vector" fill-rule="evenodd" clip-rule="evenodd" d="M2.98837 9.37536V5.49388L7.73677 7.37061C7.98106 7.46598 8.24051 7.46443 8.48441 7.36888L13.3528 5.44523V9.37522C13.352 9.43716 13.3391 9.5002 13.3122 9.56077C13.3098 9.56669 12.3801 11.6897 8.21746 11.9979C8.19023 12.0003 8.16196 12.0008 8.13379 11.9986C4.34858 11.7218 3.23167 9.94496 3.05559 9.6142C3.0129 9.54388 2.98837 9.46226 2.98837 9.37536ZM0.305016 3.04535L7.92231 0.0355385C8.04725 -0.0136511 8.18101 -0.0100062 8.29695 0.0355385L15.914 3.04535C16.2207 3.1665 16.3155 3.53769 16.11 3.78145V8.31378L16.9251 9.56672C17.1309 9.88454 16.8868 10.2923 16.5058 10.2912L14.7247 10.2923C14.3191 10.2923 14.0926 9.85147 14.3215 9.54221L15.1203 8.31431V4.23484L8.29671 6.93101C8.17177 6.9802 8.03802 6.97656 7.92208 6.93101L0.304782 3.92143C-0.105893 3.75956 -0.0972719 3.2039 0.304782 3.04533L0.305016 3.04535Z" fill="#7C7C7C"/>
</svg>
