<svg width="14" height="14" viewBox="0 0 14 14" fill="none" xmlns="http://www.w3.org/2000/svg">
<g id="Group 11738">
<path id="Vector" fill-rule="evenodd" clip-rule="evenodd" d="M0.574311 8.01858H5.73533C5.88752 8.01825 6.03339 7.95766 6.14101 7.85006C6.24864 7.74246 6.30927 7.59661 6.30964 7.44442V0.574156C6.30927 0.421967 6.24864 0.276119 6.14101 0.16852C6.03339 0.0609204 5.88752 0.000328608 5.73533 0H0.574311C0.422122 0.000328608 0.276258 0.0609204 0.16863 0.16852C0.0610011 0.276119 0.000369835 0.421967 0 0.574156V7.44442C0.000369835 7.59661 0.0610011 7.74246 0.16863 7.85006C0.276258 7.95766 0.422122 8.01825 0.574311 8.01858ZM13.4257 0H8.26467C8.11248 0.000328608 7.96661 0.0609204 7.85899 0.16852C7.75136 0.276119 7.69073 0.421967 7.69036 0.574156V4.0264C7.69073 4.17859 7.75136 4.32444 7.85899 4.43204C7.96661 4.53964 8.11248 4.60023 8.26467 4.60056H13.4257C13.5779 4.60023 13.7237 4.53964 13.8314 4.43204C13.939 4.32444 13.9996 4.17859 14 4.0264V0.574156C13.9996 0.421967 13.939 0.276119 13.8314 0.16852C13.7237 0.0609204 13.5779 0.000328608 13.4257 0ZM0.574311 14H5.73533C5.88752 13.9997 6.03339 13.9391 6.14101 13.8315C6.24864 13.7239 6.30927 13.578 6.30964 13.4258V9.9736C6.30927 9.82141 6.24864 9.67556 6.14101 9.56796C6.03339 9.46036 5.88752 9.39977 5.73533 9.39944H0.574311C0.422122 9.39977 0.276258 9.46036 0.16863 9.56796C0.0610011 9.67556 0.000369835 9.82141 0 9.9736V13.4258C0.000369835 13.578 0.0610011 13.7239 0.16863 13.8315C0.276258 13.9391 0.422122 13.9997 0.574311 14Z" fill="#171C8F"/>
<g id="Group">
<g id="Group_2">
<g id="Group_3">
<path id="Vector_2" d="M12.0648 12.9023C11.9616 12.8059 11.8576 12.7096 11.7545 12.6132C11.5055 12.3822 11.2574 12.1503 11.0084 11.9192C10.7083 11.6404 10.409 11.3616 10.1089 11.0828C9.84883 10.8406 9.58878 10.5985 9.32873 10.3572C9.20254 10.2395 9.07805 10.1193 8.9493 10.0042C8.9476 10.0025 8.94589 10.0008 8.94419 9.99908C8.98597 10.0997 9.02775 10.2003 9.06867 10.3009C9.06867 10.2199 9.06867 10.1381 9.06867 10.0571C8.92628 10.1995 8.78475 10.341 8.64236 10.4834C8.80777 10.4834 8.97403 10.4834 9.13944 10.4834C9.30997 10.4834 9.4822 10.4893 9.65272 10.4817C10.0475 10.4638 10.4431 10.347 10.7748 10.1295C11.0945 9.91979 11.3691 9.63331 11.5473 9.29311C11.7306 8.94267 11.8286 8.54364 11.8082 8.14717C11.7877 7.75581 11.6718 7.36616 11.456 7.03705C11.2446 6.71475 10.9538 6.43679 10.6094 6.25945C10.2845 6.09233 9.92812 6.00195 9.56235 6.00195C9.19571 6.00195 8.82823 6.00195 8.4616 6.00195C8.44966 6.00195 8.43858 6.00195 8.42664 6.00195C8.31751 6.00195 8.2024 6.0497 8.12481 6.12644C8.05063 6.20062 7.99521 6.32169 8.00033 6.42827C8.00544 6.53826 8.04125 6.65251 8.12481 6.7301C8.20837 6.80684 8.31068 6.85458 8.42664 6.85458C8.7856 6.85458 9.14541 6.85458 9.50437 6.85458C9.60498 6.85458 9.70559 6.85714 9.80535 6.86993C9.76783 6.86481 9.72946 6.8597 9.69195 6.85458C9.85224 6.8759 10.0083 6.91853 10.1575 6.98077C10.1234 6.96628 10.0893 6.95178 10.056 6.93814C10.2018 7.00038 10.3382 7.08053 10.4636 7.17688C10.4346 7.15471 10.4064 7.13254 10.3775 7.11037C10.4985 7.20501 10.6068 7.3133 10.7015 7.43437C10.6793 7.40538 10.6571 7.37725 10.635 7.34826C10.7313 7.47359 10.8114 7.61001 10.8737 7.75581C10.8592 7.72171 10.8447 7.6876 10.8311 7.65435C10.8933 7.80356 10.9359 7.95959 10.9572 8.11989C10.9521 8.08237 10.947 8.044 10.9419 8.00649C10.9624 8.16337 10.9624 8.32281 10.9419 8.4797C10.947 8.44218 10.9521 8.40381 10.9572 8.3663C10.9359 8.52659 10.8933 8.68262 10.8311 8.83183C10.8456 8.79773 10.86 8.76362 10.8737 8.73037C10.8114 8.87617 10.7313 9.01259 10.635 9.13793C10.6571 9.10894 10.6793 9.0808 10.7015 9.05181C10.6068 9.17288 10.4985 9.28117 10.3775 9.37581C10.4064 9.35364 10.4346 9.33147 10.4636 9.30931C10.3382 9.40565 10.2018 9.4858 10.056 9.54804C10.0901 9.53355 10.1242 9.51905 10.1575 9.50541C10.0083 9.56765 9.85224 9.61028 9.69195 9.6316C9.72946 9.62648 9.76783 9.62137 9.80535 9.61625C9.65358 9.63586 9.50096 9.6316 9.34834 9.6316C9.1599 9.6316 8.97233 9.6316 8.78389 9.6316C8.737 9.6316 8.68925 9.6316 8.64236 9.6316C8.41215 9.6316 8.21604 9.82685 8.21604 10.0579C8.21604 10.1372 8.21519 10.2165 8.21604 10.2958C8.21775 10.4186 8.26805 10.5354 8.35758 10.6189C8.41215 10.6693 8.46672 10.7204 8.52128 10.7707C8.75917 10.9915 8.99705 11.2132 9.23494 11.4341C9.55041 11.7274 9.86588 12.0207 10.1814 12.3148C10.4653 12.5791 10.7501 12.8435 11.034 13.1078C11.1747 13.2391 11.3145 13.3712 11.456 13.5008C11.4577 13.5025 11.4603 13.5042 11.462 13.506C11.5439 13.5818 11.6504 13.6304 11.7638 13.6304C11.8687 13.6304 11.9932 13.5844 12.0657 13.506C12.1398 13.425 12.1953 13.3184 12.1902 13.2041C12.185 13.0933 12.1484 12.9799 12.0648 12.9023Z" fill="#171C8F"/>
</g>
</g>
<g id="Group_4">
<g id="Group_5">
<path id="Vector_3" d="M8.42799 6.85377C8.57805 6.85377 8.72811 6.85377 8.87817 6.85377C9.23884 6.85377 9.5995 6.85377 9.96016 6.85377C10.395 6.85377 10.829 6.85377 11.2638 6.85377C11.6407 6.85377 12.0176 6.85377 12.3944 6.85377C12.5777 6.85377 12.7611 6.85632 12.9435 6.85377C12.9461 6.85377 12.9486 6.85377 12.9512 6.85377C13.0603 6.85377 13.1754 6.80602 13.253 6.72928C13.3272 6.6551 13.3826 6.53403 13.3775 6.42745C13.3724 6.31746 13.3366 6.20321 13.253 6.12562C13.1695 6.04888 13.0671 6.00114 12.9512 6.00114C12.8011 6.00114 12.6511 6.00114 12.501 6.00114C12.1403 6.00114 11.7797 6.00114 11.419 6.00114C10.9842 6.00114 10.5502 6.00114 10.1153 6.00114C9.73848 6.00114 9.36162 6.00114 8.98475 6.00114C8.80144 6.00114 8.61812 5.99858 8.43566 6.00114C8.4331 6.00114 8.43054 6.00114 8.42799 6.00114C8.31885 6.00114 8.20374 6.04888 8.12615 6.12562C8.05198 6.1998 7.99655 6.32087 8.00167 6.42745C8.00679 6.53744 8.0426 6.65169 8.12615 6.72928C8.20971 6.80602 8.31288 6.85377 8.42799 6.85377Z" fill="#171C8F"/>
</g>
</g>
<g id="Group_6">
<g id="Group_7">
<path id="Vector_4" d="M8.42744 8.66871C8.5775 8.66871 8.72756 8.66871 8.87762 8.66871C9.23829 8.66871 9.59895 8.66871 9.95961 8.66871C10.3945 8.66871 10.8284 8.66871 11.2633 8.66871C11.6401 8.66871 12.017 8.66871 12.3939 8.66871C12.5772 8.66871 12.7605 8.67127 12.943 8.66871C12.9455 8.66871 12.9481 8.66871 12.9506 8.66871C13.0598 8.66871 13.1749 8.62096 13.2525 8.54422C13.3266 8.47005 13.3821 8.34897 13.377 8.24239C13.3718 8.1324 13.336 8.01815 13.2525 7.94056C13.1689 7.86383 13.0666 7.81608 12.9506 7.81608C12.8006 7.81608 12.6505 7.81608 12.5005 7.81608C12.1398 7.81608 11.7791 7.81608 11.4185 7.81608C10.9836 7.81608 10.5496 7.81608 10.1148 7.81608C9.73793 7.81608 9.36107 7.81608 8.9842 7.81608C8.80089 7.81608 8.61757 7.81352 8.43511 7.81608C8.43255 7.81608 8.42999 7.81608 8.42744 7.81608C8.3183 7.81608 8.20319 7.86383 8.1256 7.94056C8.05143 8.01474 7.99601 8.13581 8.00112 8.24239C8.00624 8.35238 8.04205 8.46663 8.1256 8.54422C8.20916 8.62011 8.31233 8.66871 8.42744 8.66871Z" fill="#171C8F"/>
</g>
</g>
</g>
</g>
</svg>
