<svg width="16" height="15" viewBox="0 0 16 15" fill="none" xmlns="http://www.w3.org/2000/svg">
<g id="Group 11739">
<g id="Group">
<path id="Vector" d="M3.67744 0C3.49306 0 3.3436 0.149464 3.3436 0.333838V3.17147C3.3436 3.35584 3.49306 3.5053 3.67744 3.5053C3.86182 3.5053 4.01128 3.35584 4.01128 3.17147V0.333838C4.01128 0.149464 3.86182 0 3.67744 0ZM11.3557 0C11.1713 0 11.0219 0.149464 11.0219 0.333838V3.17147C11.0219 3.35584 11.1713 3.5053 11.3557 3.5053C11.5401 3.5053 11.6896 3.35584 11.6896 3.17147V0.333838C11.6896 0.149464 11.5401 0 11.3557 0ZM1.34057 1.00152C0.598481 1.00152 0 1.59999 0 2.34209V5.34141H15.0227V2.34209C15.0227 1.59999 14.4242 1.00152 13.6822 1.00152H12.6859H12.0234V2.42554C12.2281 2.60892 12.3572 2.87497 12.3572 3.17147C12.3572 3.72459 11.9088 4.17298 11.3557 4.17298C10.8026 4.17298 10.3542 3.72459 10.3542 3.17147C10.3542 2.87497 10.4833 2.60892 10.688 2.42554V1.00152H4.3399V2.42033C4.54783 2.60384 4.67895 2.87233 4.67895 3.17147C4.67895 3.72459 4.23056 4.17298 3.67744 4.17298C3.12432 4.17298 2.67592 3.72459 2.67592 3.17147C2.67592 2.87762 2.80298 2.61397 3.00455 2.43076V1.00152H1.34057ZM0 6.00909V13.3483C0 14.0904 0.598464 14.6889 1.34057 14.6889H13.6822C14.4242 14.6889 15.0227 14.0904 15.0227 13.3483V6.00909H0Z" fill="#171C8F"/>
<g id="Group_2">
<g id="Group_3">
<g id="Group_4">
<path id="Vector_2" d="M8.57315 12.0825C8.51231 12.0257 8.45097 11.9689 8.39013 11.912C8.2433 11.7758 8.09698 11.639 7.95016 11.5027C7.77317 11.3383 7.59668 11.1739 7.41969 11.0095C7.26633 10.8667 7.11297 10.7239 6.95961 10.5816C6.88519 10.5122 6.81178 10.4413 6.73586 10.3734C6.73485 10.3724 6.73384 10.3714 6.73284 10.3704C6.75748 10.4297 6.78211 10.4891 6.80625 10.5484C6.80625 10.5006 6.80625 10.4524 6.80625 10.4046C6.72228 10.4886 6.63881 10.572 6.55484 10.656C6.65239 10.656 6.75044 10.656 6.84798 10.656C6.94855 10.656 7.05012 10.6595 7.15068 10.655C7.38349 10.6444 7.61679 10.5755 7.81239 10.4473C8.00095 10.3236 8.16285 10.1547 8.26794 9.95406C8.37605 9.7474 8.43387 9.51209 8.4218 9.27827C8.40974 9.04748 8.34135 8.81769 8.21414 8.62361C8.08944 8.43354 7.91798 8.26962 7.71484 8.16503C7.52327 8.06648 7.31309 8.01318 7.09738 8.01318C6.88117 8.01318 6.66445 8.01318 6.44824 8.01318C6.4412 8.01318 6.43467 8.01318 6.42763 8.01318C6.36327 8.01318 6.29539 8.04134 6.24963 8.0866C6.20588 8.13034 6.1732 8.20174 6.17622 8.26459C6.17924 8.32946 6.20035 8.39683 6.24963 8.44259C6.29891 8.48784 6.35924 8.516 6.42763 8.516C6.63931 8.516 6.8515 8.516 7.06319 8.516C7.12252 8.516 7.18185 8.51751 7.24068 8.52505C7.21856 8.52204 7.19593 8.51902 7.17381 8.516C7.26834 8.52857 7.36036 8.55371 7.44835 8.59042C7.42824 8.58187 7.40812 8.57332 7.38851 8.56528C7.4745 8.60198 7.55495 8.64925 7.62886 8.70607C7.61176 8.69299 7.59517 8.67992 7.57808 8.66685C7.64948 8.72266 7.71333 8.78652 7.76915 8.85792C7.75607 8.84082 7.743 8.82423 7.72993 8.80713C7.78675 8.88105 7.83401 8.9615 7.87072 9.04748C7.86217 9.02737 7.85362 9.00726 7.84557 8.98765C7.88228 9.07564 7.90742 9.16765 7.91999 9.26218C7.91698 9.24006 7.91396 9.21743 7.91094 9.19531C7.92301 9.28783 7.92301 9.38186 7.91094 9.47437C7.91396 9.45225 7.91698 9.42962 7.91999 9.4075C7.90742 9.50203 7.88228 9.59404 7.84557 9.68204C7.85412 9.66193 7.86267 9.64181 7.87072 9.6222C7.83401 9.70818 7.78675 9.78864 7.72993 9.86255C7.743 9.84545 7.75607 9.82886 7.76915 9.81176C7.71333 9.88317 7.64948 9.94702 7.57808 10.0028C7.59517 9.98976 7.61176 9.97669 7.62886 9.96362C7.55495 10.0204 7.4745 10.0677 7.38851 10.1044C7.40863 10.0959 7.42874 10.0873 7.44835 10.0793C7.36036 10.116 7.26834 10.1411 7.17381 10.1537C7.19593 10.1507 7.21856 10.1476 7.24068 10.1446C7.15118 10.1562 7.06118 10.1537 6.97117 10.1537C6.86005 10.1537 6.74943 10.1537 6.63831 10.1537C6.61065 10.1537 6.5825 10.1537 6.55484 10.1537C6.41908 10.1537 6.30343 10.2688 6.30343 10.4051C6.30343 10.4519 6.30293 10.4986 6.30343 10.5454C6.30444 10.6178 6.3341 10.6867 6.3869 10.7359C6.41908 10.7656 6.45126 10.7958 6.48344 10.8254C6.62373 10.9557 6.76401 11.0864 6.9043 11.2166C7.09034 11.3896 7.27638 11.5626 7.46243 11.7361C7.62987 11.8919 7.79781 12.0478 7.96525 12.2037C8.04821 12.2811 8.13067 12.359 8.21414 12.4355C8.21515 12.4365 8.21665 12.4375 8.21766 12.4385C8.26593 12.4832 8.32878 12.5119 8.39566 12.5119C8.4575 12.5119 8.53092 12.4847 8.57366 12.4385C8.6174 12.3907 8.65008 12.3279 8.64707 12.2605C8.64405 12.1951 8.62243 12.1282 8.57315 12.0825Z" fill="white" stroke="white" stroke-width="0.2"/>
</g>
</g>
<g id="Group_5">
<g id="Group_6">
<path id="Vector_3" d="M6.42842 8.5157C6.51692 8.5157 6.60541 8.5157 6.69391 8.5157C6.9066 8.5157 7.11929 8.5157 7.33199 8.5157C7.58842 8.5157 7.84436 8.5157 8.10079 8.5157C8.32304 8.5157 8.54529 8.5157 8.76753 8.5157C8.87564 8.5157 8.98374 8.5172 9.09135 8.5157C9.09286 8.5157 9.09436 8.5157 9.09587 8.5157C9.16023 8.5157 9.22811 8.48754 9.27387 8.44228C9.31761 8.39854 9.3503 8.32714 9.34728 8.26429C9.34426 8.19942 9.32315 8.13205 9.27387 8.08629C9.22459 8.04104 9.16426 8.01288 9.09587 8.01288C9.00738 8.01288 8.91888 8.01288 8.83038 8.01288C8.61769 8.01288 8.405 8.01288 8.19231 8.01288C7.93587 8.01288 7.67994 8.01288 7.4235 8.01288C7.20125 8.01288 6.97901 8.01288 6.75676 8.01288C6.64866 8.01288 6.54055 8.01137 6.43295 8.01288C6.43144 8.01288 6.42993 8.01288 6.42842 8.01288C6.36406 8.01288 6.29618 8.04104 6.25042 8.08629C6.20668 8.13003 6.174 8.20143 6.17701 8.26429C6.18003 8.32915 6.20115 8.39653 6.25042 8.44228C6.2997 8.48754 6.36054 8.5157 6.42842 8.5157Z" fill="white" stroke="white" stroke-width="0.2"/>
</g>
</g>
<g id="Group_7">
<g id="Group_8">
<path id="Vector_4" d="M6.42812 9.58552C6.51661 9.58552 6.60511 9.58552 6.6936 9.58552C6.9063 9.58552 7.11899 9.58552 7.33168 9.58552C7.58812 9.58552 7.84405 9.58552 8.10049 9.58552C8.32274 9.58552 8.54498 9.58552 8.76723 9.58552C8.87533 9.58552 8.98344 9.58703 9.09104 9.58552C9.09255 9.58552 9.09406 9.58552 9.09557 9.58552C9.15993 9.58552 9.22781 9.55736 9.27356 9.51211C9.31731 9.46836 9.34999 9.39696 9.34698 9.33411C9.34396 9.26925 9.32284 9.20187 9.27356 9.15611C9.22429 9.11086 9.16395 9.0827 9.09557 9.0827C9.00707 9.0827 8.91858 9.0827 8.83008 9.0827C8.61739 9.0827 8.40469 9.0827 8.192 9.0827C7.93557 9.0827 7.67963 9.0827 7.42319 9.0827C7.20095 9.0827 6.9787 9.0827 6.75646 9.0827C6.64835 9.0827 6.54024 9.08119 6.43264 9.0827C6.43113 9.0827 6.42962 9.0827 6.42812 9.0827C6.36376 9.0827 6.29587 9.11086 6.25012 9.15611C6.20637 9.19986 6.17369 9.27126 6.17671 9.33411C6.17972 9.39897 6.20084 9.46635 6.25012 9.51211C6.29939 9.55686 6.36024 9.58552 6.42812 9.58552Z" fill="white" stroke="white" stroke-width="0.2"/>
</g>
</g>
</g>
</g>
</g>
</svg>
