<svg width="13" height="18" viewBox="0 0 13 18" fill="none" xmlns="http://www.w3.org/2000/svg">
<g id="Group 1">
<g id="Group">
<path id="Vector" d="M12.5716 12.0717C11.3466 11.4782 9.19483 12.7091 7.46403 13.7002C6.7799 14.0949 6.13086 14.4662 5.85019 14.5247C5.60753 14.5714 5.41457 14.5422 5.25377 14.4311C5.06081 14.2995 4.94971 14.0773 4.88831 13.9107C5.00526 13.8756 5.14852 13.8493 5.31809 13.8435C7.01087 13.7791 8.07215 13.1535 8.08969 12.2121C8.09554 11.7706 7.92305 11.525 7.77394 11.3964C7.4348 11.1011 6.97286 11.1654 6.92609 11.1713C6.91147 11.1742 5.46427 11.3788 4.59303 11.2677L4.51409 11.256C3.64285 11.1449 2.81838 11.0368 2.00561 12.1828C1.39457 13.0512 0.374225 12.9225 0.333294 12.9167C0.248509 12.902 0.163723 12.9284 0.0994033 12.9839C0.0350834 13.0395 0 13.1213 0 13.2061V16.7379C0 16.884 0.111098 17.0098 0.260203 17.0273L4.65442 17.5155C4.80353 17.5331 4.95263 17.5419 5.10466 17.5419C5.89697 17.5419 6.68342 17.3109 7.35294 16.8723L12.6476 13.4166C12.8815 13.2617 13.016 12.9927 12.9985 12.712C12.9809 12.4343 12.8201 12.1945 12.5716 12.0717Z" fill="#171C8F"/>
<path id="Vector_2" d="M1.61093 5.90281L1.94423 5.66308C2.21905 8.2271 4.39131 10.2356 7.02842 10.2356C9.84973 10.2356 12.1477 7.93766 12.1477 5.11636C12.1477 2.29505 9.84973 0 7.02842 0C4.97603 0 3.12537 1.21915 2.31845 3.10782C2.25705 3.25693 2.3243 3.42942 2.4734 3.49082C2.61958 3.55514 2.79208 3.48789 2.8564 3.33879C3.57269 1.66647 5.20992 0.584727 7.02842 0.584727C9.52813 0.584727 11.563 2.61958 11.563 5.11928C11.563 7.61899 9.52813 9.65384 7.02842 9.65384C4.73045 9.65384 2.83009 7.93474 2.5348 5.71863L2.79208 5.90574C2.8447 5.94375 2.90318 5.96129 2.96165 5.96129C3.05228 5.96129 3.14291 5.92036 3.19846 5.83849C3.29202 5.70693 3.26278 5.52567 3.13122 5.42919L2.37108 4.88247C2.26875 4.80938 2.13134 4.80938 2.02901 4.88247L1.26887 5.42919C1.1373 5.52274 1.10807 5.70693 1.20162 5.83849C1.2981 5.97006 1.47937 5.99929 1.61093 5.90281Z" fill="#171C8F"/>
</g>
<circle id="Ellipse 1" cx="6.93774" cy="5.11633" r="3.36218" fill="#171C8F"/>
<g id="Group_2">
<g id="Group_3">
<g id="Group_4">
<path id="Vector_3" d="M7.61109 6.88579C7.5606 6.83864 7.5097 6.7915 7.45922 6.74435C7.3374 6.63129 7.21599 6.5178 7.09416 6.40474C6.9473 6.26831 6.80086 6.13188 6.654 5.99545C6.52675 5.87696 6.3995 5.75848 6.27225 5.6404C6.2105 5.58283 6.14959 5.524 6.08659 5.46768C6.08575 5.46684 6.08492 5.46601 6.08409 5.46517C6.10453 5.51441 6.12497 5.56364 6.145 5.61287C6.145 5.57323 6.145 5.53318 6.145 5.49355C6.07532 5.56322 6.00607 5.63248 5.93639 5.70215C6.01733 5.70215 6.09869 5.70215 6.17963 5.70215C6.26307 5.70215 6.34735 5.70507 6.43079 5.70132C6.62396 5.69256 6.81755 5.6354 6.97984 5.52901C7.1363 5.42637 7.27064 5.28619 7.35784 5.11972C7.44754 4.94825 7.49552 4.75299 7.48551 4.55899C7.47549 4.36749 7.41875 4.17682 7.3132 4.01577C7.20973 3.85807 7.06746 3.72206 6.8989 3.63528C6.73995 3.5535 6.56555 3.50928 6.38657 3.50928C6.20716 3.50928 6.02734 3.50928 5.84794 3.50928C5.8421 3.50928 5.83668 3.50928 5.83084 3.50928C5.77743 3.50928 5.72111 3.53264 5.68314 3.57019C5.64685 3.60649 5.61973 3.66573 5.62223 3.71788C5.62473 3.7717 5.64226 3.82761 5.68314 3.86558C5.72403 3.90313 5.7741 3.92649 5.83084 3.92649C6.00648 3.92649 6.18255 3.92649 6.3582 3.92649C6.40743 3.92649 6.45666 3.92774 6.50547 3.934C6.48711 3.9315 6.46834 3.92899 6.44998 3.92649C6.52842 3.93692 6.60477 3.95778 6.67778 3.98824C6.66109 3.98115 6.6444 3.97405 6.62813 3.96738C6.69948 3.99783 6.76623 4.03705 6.82756 4.0842C6.81338 4.07335 6.79961 4.0625 6.78542 4.05166C6.84467 4.09797 6.89765 4.15095 6.94396 4.2102C6.93312 4.19601 6.92227 4.18224 6.91142 4.16806C6.95857 4.22939 6.99778 4.29614 7.02824 4.36749C7.02115 4.3508 7.01405 4.33411 7.00738 4.31784C7.03784 4.39085 7.0587 4.4672 7.06913 4.54564C7.06662 4.52728 7.06412 4.5085 7.06162 4.49015C7.07163 4.56691 7.07163 4.64493 7.06162 4.7217C7.06412 4.70334 7.06662 4.68457 7.06913 4.66621C7.0587 4.74465 7.03784 4.821 7.00738 4.89401C7.01447 4.87732 7.02156 4.86063 7.02824 4.84436C6.99778 4.9157 6.95857 4.98246 6.91142 5.04379C6.92227 5.0296 6.93312 5.01584 6.94396 5.00165C6.89765 5.06089 6.84467 5.11388 6.78542 5.16019C6.79961 5.14934 6.81338 5.1385 6.82756 5.12765C6.76623 5.17479 6.69948 5.21401 6.62813 5.24447C6.64482 5.23738 6.66151 5.23028 6.67778 5.22361C6.60477 5.25406 6.52842 5.27493 6.44998 5.28536C6.46834 5.28285 6.48711 5.28035 6.50547 5.27785C6.43121 5.28744 6.35653 5.28536 6.28185 5.28536C6.18964 5.28536 6.09785 5.28536 6.00565 5.28536C5.9827 5.28536 5.95934 5.28536 5.93639 5.28536C5.82374 5.28536 5.72779 5.3809 5.72779 5.49396C5.72779 5.53276 5.72737 5.57156 5.72779 5.61036C5.72862 5.67044 5.75324 5.7276 5.79704 5.76849C5.82374 5.7931 5.85045 5.81814 5.87715 5.84275C5.99355 5.95081 6.10995 6.05929 6.22636 6.16735C6.38072 6.31087 6.53509 6.45439 6.68946 6.59833C6.82839 6.72766 6.96774 6.857 7.10668 6.98634C7.17552 7.05059 7.24394 7.11525 7.3132 7.17867C7.31403 7.17951 7.31528 7.18034 7.31612 7.18117C7.35617 7.21831 7.40832 7.24209 7.46381 7.24209C7.51513 7.24209 7.57604 7.21956 7.6115 7.18117C7.6478 7.14154 7.67492 7.08939 7.67242 7.03348C7.66991 6.97924 7.65197 6.92375 7.61109 6.88579Z" fill="white"/>
</g>
</g>
<g id="Group_5">
<g id="Group_6">
<path id="Vector_4" d="M5.83145 3.92607C5.90488 3.92607 5.97831 3.92607 6.05174 3.92607C6.22822 3.92607 6.4047 3.92607 6.58118 3.92607C6.79396 3.92607 7.00632 3.92607 7.2191 3.92607C7.40351 3.92607 7.58792 3.92607 7.77233 3.92607C7.86203 3.92607 7.95173 3.92732 8.04101 3.92607C8.04226 3.92607 8.04351 3.92607 8.04477 3.92607C8.09817 3.92607 8.15449 3.90271 8.19246 3.86516C8.22876 3.82886 8.25588 3.76962 8.25337 3.71746C8.25087 3.66364 8.23335 3.60774 8.19246 3.56977C8.15157 3.53222 8.10151 3.50886 8.04477 3.50886C7.97134 3.50886 7.89791 3.50886 7.82448 3.50886C7.648 3.50886 7.47151 3.50886 7.29503 3.50886C7.08225 3.50886 6.86989 3.50886 6.65711 3.50886C6.4727 3.50886 6.2883 3.50886 6.10389 3.50886C6.01419 3.50886 5.92449 3.50761 5.8352 3.50886C5.83395 3.50886 5.8327 3.50886 5.83145 3.50886C5.77804 3.50886 5.72172 3.53222 5.68375 3.56977C5.64746 3.60607 5.62034 3.66531 5.62284 3.71746C5.62534 3.77128 5.64287 3.82719 5.68375 3.86516C5.72464 3.90271 5.77512 3.92607 5.83145 3.92607Z" fill="white"/>
</g>
</g>
<g id="Group_7">
<g id="Group_8">
<path id="Vector_5" d="M5.8312 4.81425C5.90463 4.81425 5.97806 4.81425 6.05149 4.81425C6.22797 4.81425 6.40445 4.81425 6.58094 4.81425C6.79372 4.81425 7.00608 4.81425 7.21886 4.81425C7.40326 4.81425 7.58767 4.81425 7.77208 4.81425C7.86178 4.81425 7.95148 4.81551 8.04077 4.81425C8.04202 4.81425 8.04327 4.81425 8.04452 4.81425C8.09792 4.81425 8.15425 4.79089 8.19221 4.75334C8.22851 4.71704 8.25563 4.6578 8.25313 4.60565C8.25062 4.55183 8.2331 4.49592 8.19221 4.45795C8.15133 4.4204 8.10126 4.39704 8.04452 4.39704C7.97109 4.39704 7.89766 4.39704 7.82423 4.39704C7.64775 4.39704 7.47127 4.39704 7.29479 4.39704C7.08201 4.39704 6.86965 4.39704 6.65687 4.39704C6.47246 4.39704 6.28805 4.39704 6.10364 4.39704C6.01394 4.39704 5.92424 4.39579 5.83496 4.39704C5.83371 4.39704 5.83246 4.39704 5.8312 4.39704C5.7778 4.39704 5.72148 4.4204 5.68351 4.45795C5.64721 4.49425 5.62009 4.5535 5.6226 4.60565C5.6251 4.65947 5.64262 4.71537 5.68351 4.75334C5.7244 4.79047 5.77488 4.81425 5.8312 4.81425Z" fill="white"/>
</g>
</g>
</g>
</g>
</svg>
